<svg width="30" height="30" viewBox="0 0 30 30" fill="none" xmlns="http://www.w3.org/2000/svg">
<path d="M22.0312 8.4375H15.7617V18.9785L18.5684 16.2129C18.8672 15.9199 19.3477 15.9199 19.6465 16.2187C19.9395 16.5176 19.9395 16.998 19.6406 17.2969L15.5391 21.3398C15.3926 21.4805 15.1992 21.5566 15.0059 21.5566C14.9062 21.5566 14.8066 21.5391 14.7129 21.498C14.625 21.4629 14.543 21.4043 14.4727 21.3398L10.3711 17.2969C10.0723 17.0039 10.0664 16.5176 10.3652 16.2187C10.6582 15.9199 11.1445 15.9141 11.4434 16.2129L14.25 18.9785V8.4375H7.96875C6.67969 8.4375 5.625 9.49219 5.625 10.7812V24.8438C5.625 26.1328 6.67969 27.1875 7.96875 27.1875H22.0312C23.3203 27.1875 24.375 26.1328 24.375 24.8438V10.7812C24.375 9.49219 23.3203 8.4375 22.0312 8.4375ZM15.7617 3.57422C15.7617 3.15234 15.4219 2.8125 15 2.8125C14.5781 2.8125 14.2383 3.15234 14.2383 3.57422V8.4375H15.7617V3.57422Z" fill="white"/>
</svg>
