<svg width="152" height="24" viewBox="0 0 152 24" fill="none" xmlns="http://www.w3.org/2000/svg">
<path d="M10.4517 22.974H1.24766V21.518L3.69166 19.464V5.06L0.805664 4.228L1.66366 2.538H10.8677V3.994L8.39766 6.074V20.478L11.2837 21.284L10.4517 22.974Z" fill="#1B4965"/>
<path d="M30.2596 23H24.3576V14.68C24.3576 13.8653 24.2276 13.2933 23.9676 12.964C23.7249 12.6173 23.2916 12.444 22.6676 12.444C21.7489 12.444 20.8389 12.7387 19.9376 13.328V20.53L22.2776 21.31L21.4196 23H13.2036V21.544L15.5176 19.594V13.692L13.2036 12.236V10.78L18.6116 8.492L19.6256 11.508L22.8496 8.934C23.3176 8.79533 23.8463 8.726 24.4356 8.726C25.7529 8.726 26.8016 9.09 27.5816 9.818C28.3789 10.5287 28.7776 11.4993 28.7776 12.73V20.53L31.1176 21.31L30.2596 23Z" fill="#1B4965"/>
<path d="M49.0909 23H43.1889V21.076L40.6929 23.052C40.1382 23.1907 39.4969 23.26 38.7689 23.26C37.6249 23.26 36.5936 22.9653 35.6749 22.376C34.7736 21.7693 34.0629 20.946 33.5429 19.906C33.0402 18.866 32.7889 17.7133 32.7889 16.448C32.7889 15.0787 33.2309 13.8047 34.1149 12.626C34.9989 11.43 36.0996 10.4853 37.4169 9.792C38.7516 9.08134 40.0342 8.726 41.2649 8.726C41.9582 8.726 42.5996 8.89933 43.1889 9.246V5.372L40.8749 3.838V2.382L45.9709 0.302002H47.6089V20.53L49.9489 21.31L49.0909 23ZM40.3549 19.776C41.3776 19.776 42.3222 19.5247 43.1889 19.022V14.056C43.0849 13.38 42.7382 12.8253 42.1489 12.392C41.5596 11.9587 40.7622 11.742 39.7569 11.742C38.2316 11.742 37.4689 12.9033 37.4689 15.226C37.4689 16.5433 37.7116 17.6353 38.1969 18.502C38.6996 19.3513 39.4189 19.776 40.3549 19.776Z" fill="#1B4965"/>
<path d="M59.6071 23H51.3911V21.544L53.7051 19.594V13.562L51.3911 12.028V10.572L56.4871 8.492H58.1251V20.53L60.4651 21.31L59.6071 23ZM55.8891 0.666002C56.6344 0.666002 57.2411 0.908669 57.7091 1.394C58.1944 1.862 58.4371 2.45134 58.4371 3.162C58.4371 3.66467 58.2638 4.13267 57.9171 4.566C57.5704 4.99934 57.1371 5.346 56.6171 5.606C56.0971 5.866 55.5944 5.996 55.1091 5.996C54.3811 5.996 53.7744 5.762 53.2891 5.294C52.8211 4.80867 52.5871 4.21067 52.5871 3.5C52.5871 2.99733 52.7604 2.52934 53.1071 2.096C53.4538 1.66267 53.8784 1.316 54.3811 1.056C54.9011 0.796002 55.4038 0.666002 55.8891 0.666002Z" fill="#1B4965"/>
<path d="M77.1104 10.442L70.4544 23H67.1784L63.3044 13.588L60.7824 12.132V10.676L66.5284 8.492L67.5164 12.418L70.3504 19.334L73.4964 13.198L69.7784 10.676L70.6104 8.986H77.1104V10.442Z" fill="#1B4965"/>
<path d="M85.9626 23H77.7466V21.544L80.0606 19.594V13.562L77.7466 12.028V10.572L82.8426 8.492H84.4806V20.53L86.8206 21.31L85.9626 23ZM82.2446 0.666002C82.9899 0.666002 83.5966 0.908669 84.0646 1.394C84.5499 1.862 84.7926 2.45134 84.7926 3.162C84.7926 3.66467 84.6192 4.13267 84.2726 4.566C83.9259 4.99934 83.4926 5.346 82.9726 5.606C82.4526 5.866 81.9499 5.996 81.4646 5.996C80.7366 5.996 80.1299 5.762 79.6446 5.294C79.1766 4.80867 78.9426 4.21067 78.9426 3.5C78.9426 2.99733 79.1159 2.52934 79.4626 2.096C79.8092 1.66267 80.2339 1.316 80.7366 1.056C81.2566 0.796002 81.7592 0.666002 82.2446 0.666002Z" fill="#1B4965"/>
<path d="M105.052 23H99.1498V21.076L96.6539 23.052C96.0992 23.1907 95.4578 23.26 94.7299 23.26C93.5859 23.26 92.5545 22.9653 91.6358 22.376C90.7345 21.7693 90.0238 20.946 89.5039 19.906C89.0012 18.866 88.7499 17.7133 88.7499 16.448C88.7499 15.0787 89.1918 13.8047 90.0759 12.626C90.9599 11.43 92.0605 10.4853 93.3779 9.792C94.7125 9.08134 95.9952 8.726 97.2259 8.726C97.9192 8.726 98.5605 8.89933 99.1498 9.246V5.372L96.8359 3.838V2.382L101.932 0.302002H103.57V20.53L105.91 21.31L105.052 23ZM96.3158 19.776C97.3385 19.776 98.2832 19.5247 99.1498 19.022V14.056C99.0458 13.38 98.6992 12.8253 98.1099 12.392C97.5205 11.9587 96.7232 11.742 95.7178 11.742C94.1925 11.742 93.4299 12.9033 93.4299 15.226C93.4299 16.5433 93.6725 17.6353 94.1579 18.502C94.6605 19.3513 95.3799 19.776 96.3158 19.776Z" fill="#1B4965"/>
<path d="M123.654 23H117.726V20.764L114.918 23.078C114.45 23.2167 113.921 23.286 113.332 23.286C111.997 23.286 110.94 22.9307 110.16 22.22C109.38 21.492 108.99 20.5127 108.99 19.282V13.692L106.676 12.366V10.91L111.772 8.648H113.41V17.332C113.41 18.164 113.531 18.7447 113.774 19.074C114.017 19.4033 114.45 19.568 115.074 19.568C115.975 19.568 116.859 19.2733 117.726 18.684V13.692L115.412 12.366V10.91L120.508 8.648H122.146V20.53L124.486 21.31L123.654 23Z" fill="#1B4965"/>
<path d="M141.016 23H135.088V20.738L132.15 23.052C131.803 23.1907 131.37 23.26 130.85 23.26C129.186 23.26 127.981 22.8527 127.236 22.038C126.508 21.2233 126.144 20.244 126.144 19.1C126.144 18.424 126.352 17.7653 126.768 17.124C127.184 16.4653 127.782 15.8587 128.562 15.304H135.088V14.862C135.088 13.9087 134.828 13.2067 134.308 12.756C133.788 12.3053 133.095 12.08 132.228 12.08C131.015 12.08 129.429 12.5567 127.47 13.51L126.69 12.028L130.304 9.116C131.188 8.856 132.219 8.726 133.398 8.726C135.339 8.726 136.839 9.168 137.896 10.052C138.971 10.936 139.508 12.2187 139.508 13.9V20.4L141.848 21.31L141.016 23ZM132.176 19.776C133.06 19.776 134.031 19.412 135.088 18.684V17.02H130.902C130.763 17.228 130.659 17.4273 130.59 17.618C130.538 17.7913 130.512 17.9907 130.512 18.216C130.512 18.6493 130.659 19.0133 130.954 19.308C131.266 19.6027 131.673 19.75 132.176 19.75V19.776Z" fill="#1B4965"/>
<path d="M151.001 23H142.785V21.544L145.099 19.594V5.372L142.785 3.838V2.382L147.881 0.302002H149.519V20.53L151.859 21.31L151.001 23Z" fill="#1B4965"/>
</svg>
