<svg width="32" height="41" viewBox="0 0 32 41" fill="none" xmlns="http://www.w3.org/2000/svg">
<path d="M27.7188 9.375H17.2695V26.9434L21.9473 22.334C22.4453 21.8457 23.2461 21.8457 23.7441 22.3437C24.2324 22.8418 24.2324 23.6426 23.7344 24.1406L16.8984 30.8789C16.6543 31.1133 16.332 31.2402 16.0098 31.2402C15.8438 31.2402 15.6777 31.2109 15.5215 31.1426C15.375 31.084 15.2383 30.9863 15.1211 30.8789L8.28516 24.1406C7.78711 23.6523 7.77734 22.8418 8.27539 22.3437C8.76367 21.8457 9.57422 21.8359 10.0723 22.334L14.75 26.9434V9.375H4.28125C2.13281 9.375 0.375 11.1328 0.375 13.2812V36.7188C0.375 38.8672 2.13281 40.625 4.28125 40.625H27.7188C29.8672 40.625 31.625 38.8672 31.625 36.7188V13.2812C31.625 11.1328 29.8672 9.375 27.7188 9.375ZM17.2695 1.26953C17.2695 0.566406 16.7031 0 16 0C15.2969 0 14.7305 0.566406 14.7305 1.26953V9.375H17.2695V1.26953Z" fill="black"/>
</svg>
